<?xml version="1.0" encoding="UTF-8"?>
<svg version="1.1" xmlns="http://www.w3.org/2000/svg" width="500" height="500">
<path d="M0 0 C1.47919922 0.32145996 1.47919922 0.32145996 2.98828125 0.64941406 C44.16839947 9.91898851 81.35199841 29.26303073 112.48828125 57.7109375 C114.1799032 59.25260229 115.88605651 60.77845444 117.60546875 62.2890625 C122.07712083 66.22628113 126.28813197 70.18575395 130.1171875 74.75390625 C131.50809193 76.4131802 132.93585639 78.04171555 134.3828125 79.65234375 C166.67035739 115.91947433 185.33895061 163.18555896 191 211 C191.13148438 212.0828125 191.26296875 213.165625 191.3984375 214.28125 C197.4984422 276.92994696 177.6430039 339.96286145 138.4375 388.8125 C133.47935924 394.71589781 128.30242059 400.40659292 123 406 C122.29037109 406.75265137 122.29037109 406.75265137 121.56640625 407.52050781 C113.97558171 415.51761632 105.84618292 422.43035468 97 429 C96.13737549 429.64582031 96.13737549 429.64582031 95.25732422 430.3046875 C44.33197394 468.25075714 -19.1151605 483.97064384 -82 476 C-97.69757543 473.66588339 -112.97094542 470.08193459 -128 465 C-128.6707959 464.77763672 -129.3415918 464.55527344 -130.03271484 464.32617188 C-160.46817827 454.10217564 -186.95868094 436.98857163 -211 416 C-211.5048291 415.55978516 -212.0096582 415.11957031 -212.52978516 414.66601562 C-217.69655654 410.1342948 -222.66746714 405.5595642 -227.08203125 400.28515625 C-228.5676711 398.51509655 -230.09422317 396.77933326 -231.63671875 395.05859375 C-244.11208227 381.07270423 -254.25409158 365.54346532 -263 349 C-263.49959229 348.08033447 -263.49959229 348.08033447 -264.00927734 347.14208984 C-280.10367391 317.45408215 -290.01533945 282.52800571 -290.203125 248.64453125 C-290.21018463 247.78856354 -290.21724426 246.93259583 -290.22451782 246.0506897 C-290.45506899 209.88118378 -290.45506899 209.88118378 -287 193 C-286.79600586 191.99807617 -286.59201172 190.99615234 -286.38183594 189.96386719 C-277.49907597 147.72227065 -258.6830525 110.91322949 -231 78 C-229.90365234 76.6696875 -229.90365234 76.6696875 -228.78515625 75.3125 C-223.78691602 69.4250023 -218.06340196 64.75452716 -212 60 C-211.01902344 59.19175781 -210.03804688 58.38351563 -209.02734375 57.55078125 C-176.13565244 30.62265891 -135.12001212 7.14041406 -93 -1 C-91.96141846 -1.21994629 -91.96141846 -1.21994629 -90.90185547 -1.44433594 C-62.11235291 -7.33785066 -28.61358407 -6.25803087 0 0 Z " fill="#1D1D1B" transform="translate(299,15)"/>
<path d="M0 0 C1.04019287 0.03077637 2.08038574 0.06155273 3.15209961 0.09326172 C20.86722783 0.79081027 20.86722783 0.79081027 26.59057617 6.5065918 C27.07631104 7.0406665 27.5620459 7.57474121 28.0625 8.125 C28.60173096 8.69323486 29.14096191 9.26146973 29.6965332 9.84692383 C47.95706061 29.65141359 60.53755242 54.4882509 70.375 79.375 C70.63506836 80.00615723 70.89513672 80.63731445 71.16308594 81.28759766 C73.25394086 86.82020737 72.9287842 90.77523938 70.68115234 96.20898438 C69.23080899 99.3444635 67.69616507 102.42327795 66.125 105.5 C65.25862915 107.21062622 65.25862915 107.21062622 64.37475586 108.95581055 C55.92601272 125.39077027 46.2178158 141.07062316 36.0625 156.5 C35.48636963 157.38018799 34.91023926 158.26037598 34.31665039 159.16723633 C33.77516357 159.97572021 33.23367676 160.7842041 32.67578125 161.6171875 C32.20567627 162.32214355 31.73557129 163.02709961 31.2512207 163.75341797 C27.62424718 168.27519045 24.0486947 169.22363072 18.4375 170.25 C17.16261719 170.48976563 15.88773438 170.72953125 14.57421875 170.9765625 C8.23519443 172.05141238 2.10135499 172.78857466 -4.33203125 172.828125 C-5.09566483 172.83500336 -5.8592984 172.84188171 -6.64607239 172.84896851 C-9.11826362 172.86613357 -11.5902522 172.87243264 -14.0625 172.875 C-14.9068158 172.87667175 -15.75113159 172.87834351 -16.62103271 172.88006592 C-30.36668633 172.88169328 -43.86605134 172.24076549 -57.46191406 170.03222656 C-60.29753283 169.57904975 -60.29753283 169.57904975 -63.37402344 169.42871094 C-71.08164221 168.74279262 -71.08164221 168.74279262 -74.32592773 165.63891602 C-76.15697788 163.04622232 -77.71317482 160.40134067 -79.25 157.625 C-80.34832974 155.91168361 -81.45641058 154.20457852 -82.57421875 152.50390625 C-83.69783968 150.73337211 -84.81885595 148.96118279 -85.9375 147.1875 C-86.84423462 145.75470703 -86.84423462 145.75470703 -87.76928711 144.29296875 C-89.00624263 142.3379535 -90.2423345 140.38239153 -91.47753906 138.42626953 C-93.10030829 135.86157889 -94.73162948 133.30264049 -96.3671875 130.74609375 C-103.4710494 119.61639884 -110.24595206 108.31076053 -116.90649414 96.91064453 C-118.25205435 94.55282155 -118.25205435 94.55282155 -119.98217773 92.14794922 C-121.54933587 89.02932565 -121.28736335 87.90299191 -120.25 84.625 C-119.98703125 83.7798584 -119.7240625 82.9347168 -119.453125 82.06396484 C-109.63589283 53.96515536 -97.22250377 21.89306881 -74.25 1.625 C-69.04884162 0.21858883 -63.66764879 0.2651791 -58.3125 0.0625 C-57.21929443 0.0207666 -56.12608887 -0.0209668 -54.99975586 -0.06396484 C-36.67119046 -0.6961178 -18.32807442 -0.61080361 0 0 Z " fill="#FEFEFE" transform="translate(299.25,105.375)"/>
<path d="M0 0 C0.84175781 0.12117188 1.68351562 0.24234375 2.55078125 0.3671875 C3.52789062 0.49351562 4.505 0.61984375 5.51171875 0.75 C7.17074219 0.99363281 7.17074219 0.99363281 8.86328125 1.2421875 C10.79822136 1.49353024 12.73321611 1.74453666 14.66918945 1.98779297 C16.57500469 2.22941111 18.47898169 2.48540105 20.3828125 2.7421875 C32.36966938 4.17218858 44.36948748 4.47567051 56.42578125 4.4921875 C57.60359665 4.49569214 57.60359665 4.49569214 58.8052063 4.49926758 C70.06396659 4.51186527 80.9431763 3.91707386 92.046875 1.8984375 C95.13474996 1.36746207 97.7609141 1.18592088 100.86328125 1.2421875 C101.42088135 2.24463501 101.42088135 2.24463501 101.98974609 3.26733398 C110.79179787 19.11286687 110.79179787 19.11286687 119.86328125 34.8046875 C120.24049316 35.44978271 120.61770508 36.09487793 121.00634766 36.75952148 C123.4882512 40.98550681 126.05507149 45.14948996 128.66015625 49.30078125 C129.97808701 51.44778014 131.29579617 53.59491509 132.61328125 55.7421875 C133.25910156 56.74580322 133.90492188 57.74941895 134.5703125 58.78344727 C139.48352258 66.87607118 139.48352258 66.87607118 138.53125 71.8359375 C137.80126953 74.02148438 137.80126953 74.02148438 136.86328125 76.2421875 C136.54987793 77.03173828 136.23647461 77.82128906 135.91357422 78.63476562 C134.82672516 81.21317934 133.64843793 83.72543855 132.42578125 86.2421875 C131.98476074 87.15572998 131.54374023 88.06927246 131.08935547 89.01049805 C121.33773166 108.74903493 107.68842182 126.22875521 93.19970703 142.69628906 C91.81434352 144.29879578 90.47735676 145.93494687 89.140625 147.578125 C84.96349434 152.46457974 79.9692253 151.81277407 73.86328125 152.3046875 C48.14816492 154.31563759 22.55344527 152.94304905 -3.13671875 151.2421875 C-4.17691162 151.1901416 -5.21710449 151.1380957 -6.28881836 151.08447266 C-12.92247581 150.64917889 -15.45547219 148.99270083 -19.91796875 144.01953125 C-33.69548288 126.7733824 -44.17598346 106.70744566 -51.69921875 85.9921875 C-51.95074707 85.31373779 -52.20227539 84.63528809 -52.46142578 83.9362793 C-53.98230975 79.54802062 -54.76586979 75.85942817 -54.13671875 71.2421875 C-52.73865188 68.56396755 -50.92433362 66.32127322 -49.01171875 63.9921875 C-47.90106489 62.57782623 -46.79174401 61.16241744 -45.68359375 59.74609375 C-45.10029297 59.0102002 -44.51699219 58.27430664 -43.91601562 57.51611328 C-40.94418657 53.71814185 -38.10817764 49.8219725 -35.26171875 45.9296875 C-34.08377091 44.32650131 -32.90538152 42.72363947 -31.7265625 41.12109375 C-31.1372998 40.31945801 -30.54803711 39.51782227 -29.94091797 38.69189453 C-28.11622382 36.21435988 -26.28553262 33.7413652 -24.453125 31.26953125 C-18.47605383 23.199487 -12.56423976 15.10625751 -6.90625 6.80859375 C-6.32230469 5.96167969 -5.73835938 5.11476563 -5.13671875 4.2421875 C-4.42128906 3.07623047 -4.42128906 3.07623047 -3.69140625 1.88671875 C-2.13671875 0.2421875 -2.13671875 0.2421875 0 0 Z " fill="#FEFEFE" transform="translate(228.13671875,278.7578125)"/>
<path d="M0 0 C11.61578704 -1.35241656 11.61578704 -1.35241656 16.48120117 2.00097656 C18.42162811 4.32658188 20.0922685 6.70193126 21.68432617 9.27685547 C23.15634506 11.58717083 24.74196227 13.793775 26.34838867 16.01269531 C43.37408017 39.60871911 43.37408017 39.60871911 44.34057617 45.80566406 C43.80867803 49.07005856 42.55232102 50.14106502 40.19213867 52.43847656 C20.60485722 73.31117336 9.42129898 100.93324389 -0.02734375 127.53149414 C-1.87144032 132.3979693 -1.87144032 132.3979693 -3.05786133 134.25097656 C-5.71176431 134.79984486 -8.06113813 135.08412798 -10.74536133 135.25097656 C-12.38911504 135.39755226 -14.03233618 135.55019193 -15.67504883 135.70800781 C-16.98747559 135.83296631 -16.98747559 135.83296631 -18.32641602 135.96044922 C-38.79858619 138.13795034 -58.37772454 143.22713957 -76.64331055 152.84960938 C-81.43307612 155.29918083 -81.43307612 155.29918083 -84.58618164 155.0559082 C-87.49702535 154.10795762 -88.31574138 153.24450649 -90.07348633 150.77832031 C-90.5980542 150.05177246 -91.12262207 149.32522461 -91.66308594 148.57666016 C-92.20586182 147.78855957 -92.7486377 147.00045898 -93.30786133 146.18847656 C-93.87706299 145.37717285 -94.44626465 144.56586914 -95.03271484 143.72998047 C-102.0374094 133.59464653 -108.13871593 123.27507018 -112.55786133 111.75097656 C-112.80141357 111.11659668 -113.04496582 110.4822168 -113.29589844 109.82861328 C-116.12997402 101.94456086 -116.87807302 96.86078423 -113.40478516 89.30200195 C-113.00155029 88.48078857 -112.59831543 87.6595752 -112.18286133 86.81347656 C-111.76866943 85.93876709 -111.35447754 85.06405762 -110.92773438 84.1628418 C-109.66086238 81.5135783 -108.36345822 78.88133322 -107.05786133 76.25097656 C-106.69869629 75.51105469 -106.33953125 74.77113281 -105.96948242 74.00878906 C-94.79635571 51.09829009 -80.74332923 27.0368757 -56.87036133 16.12597656 C-55.48300781 15.48269409 -55.48300781 15.48269409 -54.06762695 14.82641602 C-36.65988897 6.86101117 -18.94236108 2.31020847 0 0 Z " fill="#FEFEFE" transform="translate(175.057861328125,56.7490234375)"/>
<path d="M0 0 C4.32516785 0.42944929 7.15069369 2.15019381 10.75 4.5 C29.60674832 16.4381047 50.52322047 26.70206837 71.96289062 32.98706055 C75.07370088 33.96537049 76.78656042 34.73172774 78.83984375 37.3125 C80.02818777 40.06529692 80.9047375 42.73068792 81.6875 45.625 C88.59118095 68.79417166 100.69513212 96.67344198 119.76953125 112.359375 C121 114 121 114 120.80053711 116.34790039 C119.86372007 119.45148183 118.70677219 120.79567771 116.421875 123.07421875 C115.67881104 123.81994141 114.93574707 124.56566406 114.17016602 125.33398438 C113.37151123 126.11064453 112.57285645 126.88730469 111.75 127.6875 C110.94038818 128.48607422 110.13077637 129.28464844 109.29663086 130.10742188 C102.03056921 137.1733027 94.43605776 143.37596149 86 149 C80.3458366 148.71450653 75.80729916 146.89335773 70.75 144.5625 C69.97422607 144.20978027 69.19845215 143.85706055 68.39916992 143.49365234 C43.17960773 131.86397157 21.0640553 117.20559324 1 98 C0.50258301 97.52981445 0.00516602 97.05962891 -0.50732422 96.57519531 C-8.0357994 89.43124552 -14.66558573 81.85637699 -20.84716797 73.51904297 C-21.81150534 72.24837225 -22.83847293 71.02555849 -23.87890625 69.81640625 C-30.08324228 62.08819822 -32.06697598 49.64736577 -31.96875 39.8984375 C-30.51560916 35.55073387 -27.90127007 32.36915211 -25.0625 28.8125 C-24.47710449 28.06363525 -23.89170898 27.31477051 -23.28857422 26.54321289 C-18.46018813 20.42914242 -13.32818475 14.68277498 -8 9 C-6.07818582 6.83224982 -4.1754893 4.64938766 -2.27734375 2.4609375 C-1.54167701 1.61953273 -0.79030613 0.79030613 0 0 Z " fill="#FDFDFD" transform="translate(89,317)"/>
<path d="M0 0 C20.87923884 2.03751735 43.91941108 6.91916805 59.17236328 22.17675781 C61.3401301 24.33931226 63.55936226 26.4436854 65.77734375 28.5546875 C81.22000364 43.43452361 93.74899802 59.365192 104.67382812 77.80786133 C105.54601093 79.24956409 106.46640251 80.66335446 107.43554688 82.04174805 C111.96545831 88.93379946 111.69760976 95.7930687 111.5 103.8125 C111.48109367 105.20190065 111.46246008 106.59130503 111.4440918 107.98071289 C111.14470801 124.38644152 109.25807287 140.69560396 103 156 C102.34 156.33 101.68 156.66 101 157 C99.1784668 156.23071289 99.1784668 156.23071289 96.94921875 154.97265625 C95.70011719 154.28453857 95.70011719 154.28453857 94.42578125 153.58251953 C93.52214844 153.08091309 92.61851562 152.57930664 91.6875 152.0625 C76.65590357 143.98663028 61.4846903 137.93076686 44.66210938 134.80908203 C38.50587288 133.56420204 38.50587288 133.56420204 36.13671875 130.921875 C35.76160156 129.95765625 35.38648438 128.9934375 35 128 C34.73606445 127.35442139 34.47212891 126.70884277 34.20019531 126.04370117 C33.24663412 123.68669218 32.34298506 121.31336618 31.4375 118.9375 C21.81554888 94.43117211 8.54244382 67.0593833 -11.7578125 49.52734375 C-13.58971036 47.27491588 -13.90581878 45.91961779 -14 43 C-12.87094388 40.36261826 -11.70127573 37.99094071 -10.3125 35.5 C-4.27308327 24.02641828 -1.46845203 12.88759876 0 0 Z " fill="#FDFDFD" transform="translate(341,59)"/>
<path d="M0 0 C0.4125 1.12535156 0.825 2.25070313 1.25 3.41015625 C7.77651282 20.90305176 16.13521082 39.40541612 29.71923828 52.65161133 C31.91197553 55.28566642 32.29742378 56.915685 32.05737305 60.32275391 C31.83638326 62.00226782 31.59036796 63.6786106 31.32421875 65.3515625 C29.92747062 76.36349488 29.7267743 87.17871123 29.79418945 98.26806641 C29.81260984 101.39363714 29.8146969 104.51891141 29.81445312 107.64453125 C29.13203303 125.550938 29.13203303 125.550938 32 143 C32.91592929 149.60727614 32.91592929 149.60727614 30.70556641 152.96826172 C28.81968244 155.05426741 26.85014514 156.99948844 24.8125 158.9375 C16.69484995 167.06967991 9.77963573 175.7440852 3 185 C2.00168217 186.33459331 1.00273574 187.66872286 0 189 C-7.15417005 186.38016308 -13.17080663 182.31272271 -16.75 175.4375 C-17.53565929 173.64016983 -18.28369317 171.82607798 -19 170 C-19.40734375 169.00484375 -19.8146875 168.0096875 -20.234375 166.984375 C-28.05244799 146.61877746 -32.40907134 123.78728279 -33 102 C-33.03254883 100.96359375 -33.06509766 99.9271875 -33.09863281 98.859375 C-33.75338795 75.05009732 -31.72162574 51.91349742 -25 29 C-24.82388184 28.3404834 -24.64776367 27.6809668 -24.46630859 27.00146484 C-22.12148517 18.225603 -19.76394195 12.13573362 -12 7 C-11.11957031 6.35160156 -10.23914063 5.70320312 -9.33203125 5.03515625 C-2.42240099 0 -2.42240099 0 0 0 Z " fill="#FDFDFD" transform="translate(54,161)"/>
<path d="M0 0 C1.38445312 0.30357422 1.38445312 0.30357422 2.796875 0.61328125 C4.54524849 1.01937509 6.27688101 1.49742363 8 2 C6.13230893 8.72174235 3.88493523 15.08665795 1 21.4375 C0.61191162 22.2929541 0.22382324 23.1484082 -0.17602539 24.02978516 C-9.4110591 43.94676587 -21.50892797 61.59039167 -36 78 C-36.44988281 78.51304687 -36.89976562 79.02609375 -37.36328125 79.5546875 C-57.7012632 102.6473817 -82.25754383 119.89392431 -110 133 C-111.10085938 133.52851563 -112.20171875 134.05703125 -113.3359375 134.6015625 C-120.56948324 138 -120.56948324 138 -124 138 C-124.54527344 136.47632813 -124.54527344 136.47632813 -125.1015625 134.921875 C-127.9427528 127.10788733 -130.94077557 119.73033758 -134.99609375 112.453125 C-136 110 -136 110 -135.98046875 108.015625 C-134.51204866 104.99688092 -132.21234768 102.85446838 -129.875 100.5 C-110.55989637 80.24972539 -93.46578915 54.87955695 -84.3984375 28.2578125 C-83 26 -83 26 -80.30859375 24.7578125 C-76.77951751 23.94949988 -73.26298149 23.31973964 -69.6875 22.75 C-52.79984217 19.76832205 -34.98189996 13.28015098 -22 1.875 C-14.78844155 -3.86863193 -8.37511602 -2.04032082 0 0 Z " fill="#FDFDFD" transform="translate(455,325)"/>
<path d="M0 0 C0.66 0 1.32 0 2 0 C6.52461908 12.41965128 11.00328776 24.74654189 13.546875 37.74121094 C13.86023693 39.30329317 14.19500974 40.86117696 14.546875 42.41503906 C22.69782936 78.52982502 19.97783513 120.03124118 8 155 C7.67 155.33 7.34 155.66 7 156 C-0.06552429 155.42085867 -7.0199062 154.21649689 -14 153 C-15.16006698 149.54416807 -14.82836478 147.12714057 -14.07421875 143.58984375 C-13.85531982 142.52822021 -13.6364209 141.46659668 -13.41088867 140.37280273 C-13.17217041 139.23915283 -12.93345215 138.10550293 -12.6875 136.9375 C-9.34176193 120.1075283 -7.83019405 104.08656291 -7.75 86.9375 C-7.7445517 86.22222137 -7.73910339 85.50694275 -7.73348999 84.76998901 C-7.691548 77.38066052 -7.77321415 70.24652992 -9.57739258 63.03613281 C-10.89245238 56.70014277 -8.71433983 50.99597262 -6.625 45.0625 C-1.49749738 30.44920998 -0.494389 15.37720273 0 0 Z " fill="#FBFBFB" transform="translate(458,165)"/>
<path d="M0 0 C-3.19419642 2.12946428 -5.83378648 2.9506809 -9.5 4.0625 C-24.26658391 8.80329295 -37.60313403 15.72196582 -50 25 C-53.12555533 27.08370355 -53.84772714 27.2462216 -57.40234375 27.2734375 C-58.28229004 27.29100098 -59.16223633 27.30856445 -60.06884766 27.32666016 C-61.01550293 27.3426123 -61.9621582 27.35856445 -62.9375 27.375 C-83.75179763 28.0677861 -103.40562358 33.29584141 -122.16333008 42.34570312 C-123.07248169 42.66958008 -123.07248169 42.66958008 -124 43 C-124.66 42.67 -125.32 42.34 -126 42 C-89.27892362 17.87300104 -45.05360236 -2.29518352 0 0 Z " fill="#F7F7F7" transform="translate(242,24)"/>
<path d="M0 0 C20.67507287 4.20955237 41.05409295 12.98429989 59 24 C50.29120828 26.78499375 36.50704662 22.68156808 28.55224609 18.80810547 C24.42667153 16.30857473 20.68552928 13.34889321 16.89404297 10.37792969 C13.62582643 8.00027899 10.08583446 6.16165147 6.5 4.3125 C5.84572021 3.97371826 5.19144043 3.63493652 4.51733398 3.28588867 C3.01577531 2.51564431 1.50855702 1.75644598 0 1 C0 0.67 0 0.34 0 0 Z " fill="#F2F2F2" transform="translate(307,32)"/>
<path d="M0 0 C0.66 0.33 1.32 0.66 2 1 C1 4 1 4 -1.43359375 5.421875 C-2.42488281 5.86015625 -3.41617188 6.2984375 -4.4375 6.75 C-5.42621094 7.19859375 -6.41492188 7.6471875 -7.43359375 8.109375 C-8.28050781 8.40328125 -9.12742187 8.6971875 -10 9 C-10.66 8.67 -11.32 8.34 -12 8 C-8.04 5.36 -4.08 2.72 0 0 Z " fill="#DFDFDE" transform="translate(128,58)"/>
</svg>
